PathFileType	4	(X/Y/Z)	RBDS09static.trc
DataRate	CameraRate	NumFrames	NumMarkers	Units	OrigDataRate	OrigDataStartFrame	OrigNumFrames
150.000000	150.000000	4	48	mm	150.000000	75	150
Frame#	Time	L.Ankle			L.Ankle.Medial			L.ASIS			L.GTR			L.Heel.Bottom			L.Heel.Lateral			L.Heel.Top			L.HF			L.Iliac.Crest			L.Knee			L.Knee.Medial			L.MT1			L.MT2			L.MT5			L.PSIS			L.Shank.Bottom.Lateral			L.Shank.Bottom.Medial			L.Shank.Top.Lateral			L.Shank.Top.Medial			L.Thigh.Bottom.Lateral			L.Thigh.Bottom.Medial			L.Thigh.Top.Lateral			L.Thigh.Top.Medial			L.TT			R.Ankle			R.Ankle.Medial			R.ASIS			R.GTR			R.Heel.Bottom			R.Heel.Lateral			R.Heel.Top			R.HF			R.Iliac.Crest			R.Knee			R.Knee.Medial			R.MT1			R.MT2			R.MT5			R.PSIS			R.Shank.Bottom.Lateral			R.Shank.Bottom.Medial			R.Shank.Top.Lateral			R.Shank.Top.Medial			R.Thigh.Bottom.Lateral			R.Thigh.Bottom.Medial			R.Thigh.Top.Lateral			R.Thigh.Top.Medial			R.TT			
		X1	Y1	Z1	X2	Y2	Z2	X3	Y3	Z3	X4	Y4	Z4	X5	Y5	Z5	X6	Y6	Z6	X7	Y7	Z7	X8	Y8	Z8	X9	Y9	Z9	X10	Y10	Z10	X11	Y11	Z11	X12	Y12	Z12	X13	Y13	Z13	X14	Y14	Z14	X15	Y15	Z15	X16	Y16	Z16	X17	Y17	Z17	X18	Y18	Z18	X19	Y19	Z19	X20	Y20	Z20	X21	Y21	Z21	X22	Y22	Z22	X23	Y23	Z23	X24	Y24	Z24	X25	Y25	Z25	X26	Y26	Z26	X27	Y27	Z27	X28	Y28	Z28	X29	Y29	Z29	X30	Y30	Z30	X31	Y31	Z31	X32	Y32	Z32	X33	Y33	Z33	X34	Y34	Z34	X35	Y35	Z35	X36	Y36	Z36	X37	Y37	Z37	X38	Y38	Z38	X39	Y39	Z39	X40	Y40	Z40	X41	Y41	Z41	X42	Y42	Z42	X43	Y43	Z43	X44	Y44	Z44	X45	Y45	Z45	X46	Y46	Z46	X47	Y47	Z47	X48	Y48	Z48	

76	0.5	693.4077758789063	98.39693450927734	1047.569580078125	709.8230590820313	109.4916687011719	1133.816772460938	823.1436157226563	983.6504516601563	1113.349365234375	746.9366455078125	902.683837890625	1069.620849609375	627.7772827148438	38.74928665161133	1081.5537109375	664.3532104492188	60.7083854675293	1044.0908203125	635.2545166015625	88.46604919433594	1084.070922851563	706.9765014648438	459.8435974121094	1051.664428710938	758.2425537109375	1046.927490234375	1080.709228515625	707.9375610351563	523.4085083007813	1058.204956054688	700.4716796875	507.4122924804688	1187.43994140625	837.2615356445313	55.08900833129883	1136.160400390625	835.7752075195313	70.03633117675781	1086.107666015625	810.8057861328125	51.43887710571289	1027.996337890625	664.1066284179688	1019.883483886719	1200.753540039063	683.3998413085938	193.3855438232422	1037.429565429688	644.1272583007813	188.1841430664063	1073.178833007813	670.9860229492188	272.4045715332031	1031.929809570313	631.67236328125	267.955322265625	1067.786987304688	685.140625	642.1312255859375	1056.26171875	638.1596069335938	644.1046142578125	1112.47412109375	690.0983276367188	752.8926391601563	1059.25244140625	649.4422607421875	753.963623046875	1115.760864257813	757.2300415039063	440.4986267089844	1108.158447265625	698.3453979492188	99.5323486328125	1416.472778320313	714.2273559570313	115.5390701293945	1329.000366210938	829.8735961914063	980.1281127929688	1347.905395507813	760.5004272460938	898.6450805664063	1395.013793945313	630.5111083984375	38.0684700012207	1376.59912109375	667.3831176757813	60.46456146240234	1418.106079101563	638.5808715820313	86.51237487792969	1374.307983398438	721.4437255859375	456.7344665527344	1418.656982421875	775.6505737304688	1048.99267578125	1388.70654296875	725.8195190429688	523.9437866210938	1412.284545898438	699.6922607421875	503.614990234375	1282.37255859375	835.2225952148438	59.98157119750977	1326.817016601563	843.4835205078125	69.23570251464844	1372.649780273438	812.1024780273438	49.26498413085938	1436.710815429688	666.966064453125	1014.791198730469	1276.658569335938	671.8036499023438	185.2628631591797	1417.564697265625	646.7982177734375	188.2545471191406	1372.255859375	661.5257568359375	269.2151184082031	1425.997680664063	635.912841796875	267.8996276855469	1379.385009765625	725.0206909179688	603.3226928710938	1422.7802734375	662.298095703125	601.8446044921875	1384.568237304688	721.4361572265625	713.9071655273438	1421.02490234375	663.2342529296875	712.0057373046875	1383.198486328125	767.8034057617188	437.5133666992188	1361.498046875	
77	0.5066666666666667	693.404541015625	98.39952087402344	1047.571044921875	709.8156127929688	109.4814682006836	1133.813354492188	823.1329956054688	983.649169921875	1113.34912109375	746.9534301757813	902.6803588867188	1069.632446289063	627.7836303710938	38.75098419189453	1081.563598632813	664.3595581054688	60.70477676391602	1044.101684570313	635.2449340820313	88.45810699462891	1084.0615234375	706.9881591796875	459.8411254882813	1051.658203125	758.23486328125	1046.9150390625	1080.716064453125	707.9506225585938	523.3941650390625	1058.210815429688	700.4793090820313	507.4089660644531	1187.43505859375	837.2615356445313	55.08857727050781	1136.166870117188	835.7724609375	70.0322265625	1086.098754882813	810.8070678710938	51.42998886108398	1028.0068359375	664.0938110351563	1019.872863769531	1200.749755859375	683.4221801757813	193.3753509521484	1037.429077148438	644.1331176757813	188.1734008789063	1073.175537109375	671.002197265625	272.3926696777344	1031.9296875	631.6839599609375	267.9465637207031	1067.78466796875	685.1426391601563	642.1229248046875	1056.262817382813	638.1622924804688	644.098388671875	1112.469116210938	690.0994262695313	752.8869018554688	1059.247436523438	649.4300537109375	753.9640502929688	1115.756713867188	757.2393798828125	440.4803466796875	1108.166381835938	698.3460693359375	99.52500915527344	1416.470703125	714.2282104492188	115.531135559082	1329.000122070313	829.8651123046875	980.1304931640625	1347.905029296875	760.4918823242188	898.6409301757813	1395.008666992188	630.5154418945313	38.05772399902344	1376.589233398438	667.3745727539063	60.45660018920898	1418.1015625	638.5689086914063	86.50599670410156	1374.311645507813	721.4559326171875	456.73291015625	1418.65478515625	775.6386108398438	1049.04345703125	1388.663452148438	725.8385009765625	523.93994140625	1412.298950195313	699.6861572265625	503.60546875	1282.376708984375	835.2240600585938	59.97338104248047	1326.822387695313	843.4799194335938	69.22804260253906	1372.64990234375	812.1036376953125	49.26086807250977	1436.708984375	666.9578857421875	1014.789306640625	1276.6640625	671.8126831054688	185.2555236816406	1417.566040039063	646.7988891601563	188.2448577880859	1372.25	661.532958984375	269.2080078125	1425.995727539063	635.9159545898438	267.8970642089844	1379.393920898438	725.01806640625	603.3177490234375	1422.803955078125	662.29443359375	601.8433837890625	1384.579467773438	721.4456176757813	713.90283203125	1421.031372070313	663.2303466796875	712.005859375	1383.212280273438	767.8089599609375	437.5324401855469	1361.498901367188	
78	0.5133333333333334	693.4112548828125	98.39562225341797	1047.568481445313	709.8247680664063	109.4882507324219	1133.8203125	823.1119384765625	983.6399536132813	1113.36083984375	746.9434814453125	902.6835327148438	1069.626342773438	627.7806396484375	38.74610900878906	1081.559204101563	664.3446044921875	60.70790863037109	1044.09130859375	635.2489624023438	88.4580078125	1084.054443359375	706.9970092773438	459.8360290527344	1051.662109375	758.2188720703125	1046.892211914063	1080.71044921875	707.968017578125	523.406982421875	1058.212158203125	700.4798583984375	507.4092407226563	1187.443969726563	837.2581176757813	55.07880020141602	1136.169067382813	835.7733764648438	70.03377532958984	1086.110595703125	810.80908203125	51.44084548950195	1028.0087890625	664.0779418945313	1019.874389648438	1200.755249023438	683.4270629882813	193.3692169189453	1037.432006835938	644.1372680664063	188.1681671142578	1073.173217773438	671.0150756835938	272.39208984375	1031.92236328125	631.6840209960938	267.9475708007813	1067.77294921875	685.1469116210938	642.1265869140625	1056.261352539063	638.1658325195313	644.0809936523438	1112.465698242188	690.1026000976563	752.87646484375	1059.2470703125	649.4269409179688	753.9552001953125	1115.750610351563	757.2286987304688	440.4759521484375	1108.167236328125	698.3582763671875	99.52105712890625	1416.46826171875	714.2430419921875	115.5263290405273	1328.998413085938	829.84619140625	980.1303100585938	1347.913818359375	760.4806518554688	898.6480102539063	1395.015991210938	630.51611328125	38.06017303466797	1376.59326171875	667.3837280273438	60.45439910888672	1418.1103515625	638.5709838867188	86.50371551513672	1374.312744140625	721.4664916992188	456.7224731445313	1418.660522460938	775.6121215820313	1049.041259765625	1388.6728515625	725.8375854492188	523.9535522460938	1412.279541015625	699.6768188476563	503.6014709472656	1282.390014648438	835.2244873046875	59.98146057128906	1326.823120117188	843.4786376953125	69.23341369628906	1372.655395507813	812.1017456054688	49.2603759765625	1436.707763671875	666.9466552734375	1014.78466796875	1276.661010742188	671.814453125	185.2555389404297	1417.575439453125	646.7998657226563	188.2463226318359	1372.251098632813	661.5372314453125	269.2076110839844	1425.999389648438	635.916015625	267.8948059082031	1379.401123046875	725.0304565429688	603.3212280273438	1422.803833007813	662.3080444335938	601.8356323242188	1384.587768554688	721.4351196289063	713.905517578125	1421.049072265625	663.2237548828125	712.00830078125	1383.216796875	767.8048095703125	437.5308227539063	1361.511352539063	
79	0.52	693.410888671875	98.38424682617188	1047.576904296875	709.8272705078125	109.4881362915039	1133.81494140625	823.1014404296875	983.6390380859375	1113.35791015625	746.9337768554688	902.6878051757813	1069.630004882813	627.7778930664063	38.7487907409668	1081.558837890625	664.3525390625	60.70676422119141	1044.091186523438	635.2492065429688	88.45285034179688	1084.050170898438	706.999755859375	459.8359680175781	1051.6533203125	758.1925048828125	1046.88134765625	1080.701538085938	707.9708862304688	523.40283203125	1058.21337890625	700.4775390625	507.4081726074219	1187.436279296875	837.2667236328125	55.08475875854492	1136.167724609375	835.7666625976563	70.03083801269531	1086.106079101563	810.8059692382813	51.43495941162109	1028.0048828125	664.0651245117188	1019.868591308594	1200.750854492188	683.4356689453125	193.3663482666016	1037.429443359375	644.1412963867188	188.1699371337891	1073.164916992188	671.0171508789063	272.3919982910156	1031.9208984375	631.68359375	267.9482727050781	1067.771484375	685.1492919921875	642.121337890625	1056.259643554688	638.1602783203125	644.0869140625	1112.467163085938	690.1001586914063	752.8834838867188	1059.245849609375	649.4288330078125	753.947021484375	1115.755004882813	757.2359008789063	440.4712829589844	1108.163940429688	698.3598022460938	99.51959228515625	1416.47509765625	714.233154296875	115.5268096923828	1329.006591796875	829.8319702148438	980.1357421875	1347.924194335938	760.4701538085938	898.6489868164063	1395.019897460938	630.5144653320313	38.06563186645508	1376.587280273438	667.3827514648438	60.45595932006836	1418.104125976563	638.5728759765625	86.50709533691406	1374.319213867188	721.468017578125	456.7252197265625	1418.66064453125	775.5869140625	1049.038452148438	1388.67236328125	725.8418579101563	523.9276733398438	1412.289184570313	699.654296875	503.6161193847656	1282.384155273438	835.2182006835938	59.97670745849609	1326.82958984375	843.4803466796875	69.2320556640625	1372.6552734375	812.1001586914063	49.26274490356445	1436.710815429688	666.9297485351563	1014.782470703125	1276.66015625	671.8177490234375	185.2511444091797	1417.572509765625	646.8027954101563	188.2415313720703	1372.259033203125	661.54052734375	269.2030944824219	1426.013549804688	635.925537109375	267.887451171875	1379.404052734375	725.0266723632813	603.3336791992188	1422.824096679688	662.3033447265625	601.837890625	1384.597534179688	721.4319458007813	713.9090576171875	1421.049438476563	663.2258911132813	712.0014038085938	1383.22998046875	767.7999267578125	437.5321044921875	1361.5283203125	
